<svg width="161" height="121" viewBox="0 0 161 121" fill="none" xmlns="http://www.w3.org/2000/svg">
<g opacity="0.5">
<path d="M100.886 74.4609C99.6614 49.901 100.397 25.4688 100.392 0.905658C100.579 0.664378 100.393 0.200629 100.032 0.163731C95.4352 -0.306529 90.3965 0.320726 85.8364 0.97692C85.6548 1.00297 85.6056 1.16864 85.6429 1.31768C84.7215 1.8422 83.8982 2.557 83.0275 3.15821C82.0693 3.81983 81.0528 4.39969 80.1173 5.09278C80.1061 5.1011 80.1054 5.1163 80.096 5.12606C80.0457 5.12932 79.9947 5.13438 79.9448 5.13728C79.6974 5.1532 79.5773 5.34058 79.5809 5.52615C79.5053 5.58077 79.438 5.65167 79.3996 5.75911C79.0332 6.78862 78.6429 7.79823 78.2482 8.80495C78.0518 8.83063 78.0001 9.0578 78.1064 9.17935C74.663 17.8614 70.2086 25.7539 65.3436 33.7642C65.2687 33.7707 65.1924 33.7729 65.1175 33.7798C64.9449 33.796 64.9438 34.0337 65.1175 34.0489C65.1345 34.0503 65.1522 34.0507 65.1696 34.0522C65.0234 34.2923 64.8809 34.5322 64.734 34.7727C64.6675 34.8816 64.7159 35.0028 64.8013 35.0737C64.7731 35.1461 64.7608 35.2264 64.7944 35.3049C65.5899 37.1819 67.4196 38.7761 68.7479 40.3037C70.0907 41.8483 71.3774 43.8075 73.1 44.9329C73.2834 45.0526 73.4498 44.9644 73.5402 44.8182C73.6379 44.8953 73.7764 44.9202 73.8904 44.8942C74.6041 44.731 75.2943 44.4847 75.9903 44.2593C77.0201 43.9258 78.4092 43.7015 79.2669 43.0197C79.3609 42.9451 79.383 42.8529 79.3787 42.7599C80.0273 42.3436 80.4451 41.5159 80.8582 40.8944C81.0488 40.6079 81.23 40.3153 81.421 40.0284C81.0047 51.8464 80.6238 63.6891 80.6831 75.4984C80.6784 75.498 80.6737 75.4973 80.669 75.4969C80.4523 75.4749 80.3991 75.8493 80.6173 75.88C80.6397 75.8833 80.6618 75.8862 80.6842 75.8894C80.69 76.8748 80.6777 77.8613 80.69 78.8459C80.6925 79.0337 80.7945 79.1357 80.9189 79.199C80.8669 79.4804 81.0401 79.8302 81.3802 79.8078C86.0017 79.5061 90.411 79.6833 95.0188 79.9991C95.1179 80.006 95.1971 79.9749 95.2666 79.9304C95.3871 79.9293 95.501 79.8888 95.5976 79.8237C95.6938 79.8371 95.798 79.8197 95.9004 79.7401C97.6487 78.3771 99.2971 76.8947 101.057 75.5429C101.491 75.209 101.276 74.5608 100.886 74.4609ZM80.0529 40.4238C79.6804 41.0254 79.1855 41.6613 79.0274 42.3635C79.0137 42.3609 79.0021 42.3494 78.9883 42.3483C78.2424 42.2861 77.4575 42.71 76.7651 42.9509C76.2876 43.117 75.8105 43.283 75.337 43.4606C74.9235 43.6158 74.5097 43.7692 74.0976 43.928C74.0253 43.9558 73.92 43.9841 73.818 44.0181C76.4775 39.8414 79.4246 35.5733 81.7282 31.172C81.6504 33.5001 81.5686 35.8308 81.4865 38.1619C80.9956 38.9074 80.5225 39.6653 80.0529 40.4238ZM81.5719 78.8202C81.6283 77.892 81.6714 76.9623 81.7216 76.0338C83.4395 76.2754 85.1582 76.5149 86.8819 76.7117C87.227 76.7511 87.2197 76.2168 86.8819 76.1737C85.173 75.9556 83.4587 75.7802 81.7444 75.6069C81.8009 74.5485 81.8287 73.4871 81.8783 72.4279C81.8956 72.5318 81.9615 72.6298 82.0971 72.637C84.1685 72.7484 86.2401 72.8924 88.3147 72.913C88.6772 72.9167 88.6699 72.3787 88.3147 72.3549C86.2456 72.2163 84.1699 72.2008 82.0971 72.1527C81.9658 72.1498 81.9032 72.2359 81.8823 72.3332C81.9517 70.8388 81.9922 69.3416 82.0497 67.8462C83.2547 67.9489 84.4795 68.0968 85.6823 68.0719C85.8921 68.0675 85.9598 67.7228 85.7344 67.6888C84.5309 67.5079 83.2869 67.4927 82.0653 67.4381C82.1174 66.0624 82.1507 64.6849 82.1944 63.3089C83.8476 63.4319 85.5738 63.4774 87.1893 63.1023C87.457 63.0401 87.402 62.6082 87.1242 62.6201C85.4736 62.6907 83.8613 62.8675 82.2096 62.8209C82.2791 60.6063 82.3337 58.3903 82.3872 56.1747C84.528 56.57 86.7343 56.6077 88.875 56.2173C89.1854 56.1605 89.1178 55.6367 88.8002 55.6624C86.6424 55.8371 84.549 55.8466 82.4014 55.6527C82.4263 54.5939 82.4401 53.535 82.4625 52.4759C83.5322 52.5135 84.6235 52.5924 85.6841 52.4932C85.9218 52.4708 85.9222 52.1456 85.6841 52.1232C84.6257 52.0237 83.5369 52.1022 82.4686 52.1402C82.516 49.8753 82.5439 47.6156 82.584 45.3511C83.9377 45.1981 85.2746 45.219 86.6402 45.2013C86.9632 45.197 87.0649 44.6598 86.7198 44.6135C85.3513 44.4294 83.9576 44.5476 82.5942 44.7607C82.6195 43.313 82.6426 41.8679 82.668 40.4198C83.9945 40.3848 85.3322 40.3692 86.6427 40.2068C87.0063 40.1616 87.0302 39.6305 86.6427 39.6215C85.3271 39.5918 83.9973 39.7126 82.6784 39.8121C82.7407 36.2432 82.804 32.6728 82.8604 29.1119C82.8713 28.4268 81.8197 28.4293 81.7976 29.1119C81.7973 29.1217 81.7969 29.1314 81.7965 29.1412C81.7651 29.1643 81.7325 29.1839 81.7036 29.22C78.2797 33.4745 75.5728 38.7001 73.0812 43.5825C72.4561 42.6113 71.6273 41.7221 70.8112 40.8586C71.9406 40.5591 73.0218 40.549 74.2044 40.5747C74.4384 40.5797 74.4988 40.2053 74.2608 40.1587C73.0414 39.9185 71.7221 40.1721 70.5569 40.5881C70.2111 40.2223 69.8714 39.8595 69.5556 39.4981C69.1049 38.9827 68.6527 38.4097 68.1854 37.8374C69.9333 38.134 71.7239 38.3435 73.4885 38.2197C73.8198 38.1966 73.8234 37.7202 73.4885 37.7017C71.5477 37.5965 69.6374 37.5552 67.7111 37.2695C66.9461 36.3687 66.1267 35.5168 65.1837 34.9529C65.404 34.6729 65.6047 34.3781 65.8207 34.0948C69.0637 34.3325 72.4083 34.2956 75.6405 34.1126C75.9382 34.0959 75.9396 33.6633 75.6405 33.6485C72.5016 33.4922 69.2569 33.4773 66.1036 33.7136C67.3787 32.0192 68.5638 30.2579 69.6996 28.4633C72.5791 28.3848 75.3948 28.6416 78.267 28.8757C78.5127 28.8956 78.564 28.5002 78.3253 28.4463C75.5942 27.8288 72.7487 27.8205 69.9626 28.0538C70.9002 26.5537 71.7847 25.0188 72.6355 23.4644C74.1154 23.3736 75.588 23.3718 77.0737 23.4008C77.3916 23.4069 77.3764 22.9493 77.0737 22.9164C75.6922 22.7666 74.3013 22.8089 72.9205 22.9529C73.5246 21.833 74.0944 20.6939 74.6573 19.5518C75.7316 19.4491 76.8045 19.3211 77.8612 19.1105C78.1075 19.0613 78.0554 18.6475 77.8015 18.6681C76.8306 18.7466 75.8665 18.8949 74.9061 19.0646C75.6318 17.5731 76.3126 16.0611 76.9738 14.5414C78.7619 14.536 80.5619 14.5588 82.3391 14.3797C82.677 14.3457 82.6926 13.8458 82.3391 13.8418C80.6082 13.8223 78.8719 13.9941 77.1449 14.1453C77.8384 12.5363 78.4902 10.9135 79.1204 9.28534C80.1926 9.33164 81.2818 9.39567 82.3366 9.29474C82.6821 9.26183 82.6828 8.78976 82.3366 8.75684C81.3465 8.66206 80.3264 8.71379 79.3186 8.75901C79.5132 8.25004 79.701 7.73999 79.8931 7.23066C80.7822 7.06101 81.6131 7.1178 82.5233 7.3135C82.851 7.38404 82.9602 6.94091 82.6593 6.82045C81.8414 6.49344 80.936 6.49235 80.0891 6.70976C80.1741 6.48041 80.2653 6.25252 80.3474 6.02282C80.3604 5.98592 80.3568 5.95517 80.3615 5.92117C84.8655 6.1657 89.7667 6.22647 94.1727 5.29427C94.2932 5.26895 94.3662 5.19805 94.4248 5.12064C94.419 5.14777 94.3948 5.15862 94.3934 5.18901C93.4022 29.7189 93.6015 54.4394 94.6361 78.9664C90.3976 78.1633 85.8256 78.2067 81.5719 78.8202ZM95.8027 78.7443C94.9114 54.2151 95.6204 29.7156 95.2467 5.18648C95.2398 4.72453 94.6853 4.67498 94.4845 4.98607C94.5735 4.69523 94.4107 4.31251 94.0389 4.30709C89.9371 4.24849 85.7272 4.7003 81.5994 5.01248C82.2404 4.67679 82.8691 4.31577 83.484 3.93848C84.494 3.31846 85.5897 2.70459 86.4011 1.83026C86.48 1.74525 86.5118 1.65048 86.5154 1.55823C90.8964 1.55245 95.4956 1.64505 99.8274 1.08074C97.7977 25.4865 98.6691 50.3485 99.7554 74.7829C99.7601 74.8881 99.792 74.9739 99.8354 75.0487C98.392 76.1528 96.9874 77.3711 95.8027 78.7443Z" fill="#497737"/>
<path d="M86.4 49.1957C85.5351 49.1053 84.6376 49.1953 83.7694 49.2192C83.4884 49.2268 83.4877 49.6486 83.7694 49.6566C84.638 49.6804 85.5351 49.7705 86.4 49.6801C86.7111 49.6475 86.7118 49.2283 86.4 49.1957Z" fill="#497737"/>
<path d="M85.8704 36.8127C84.9241 36.9823 84.019 37.1259 83.0535 37.0692C82.8343 37.0561 82.843 37.3821 83.0535 37.4056C84.0266 37.5126 85.0388 37.5065 85.9793 37.2084C86.2347 37.1274 86.1279 36.7664 85.8704 36.8127Z" fill="#497737"/>
<path d="M85.92 32.8484C84.9726 32.8166 83.9916 32.9971 83.0492 33.0912C82.7237 33.1237 82.7117 33.6276 83.0492 33.6092C84.0216 33.5556 85.0366 33.5792 85.9945 33.3968C86.3132 33.3361 86.2235 32.8589 85.92 32.8484Z" fill="#497737"/>
<path d="M46.0337 60.2809C46.6973 61.4288 45.7749 65.7158 46.5077 68.3797C47.8319 73.1922 51.8725 76.7684 56.2931 79.7813C56.7241 80.0751 57.2859 80.0729 57.7119 79.7717C62.7135 76.2352 65.8489 74.3036 66.975 71.1981C67.9524 68.5025 67.3568 65.287 67.9185 62.4655C67.7938 62.2217 66.4095 59.6202 66.3383 59.5927C66.33 59.5895 66.3215 59.5909 66.3132 59.5885C63.1749 57.3361 60.1169 55.9093 56.4081 54.9699C56.3763 54.9618 56.2731 54.9669 56.2474 54.9752C52.6833 56.13 49.6654 58.2379 46.1623 59.8221C45.96 59.9136 45.9714 60.1732 46.0337 60.2809ZM56.3467 55.5804C59.9073 56.4918 62.8595 57.8676 65.879 60.02C65.0407 62.7255 66.4406 66.2836 65.5276 69.1063C64.1895 73.2418 59.9261 76.0082 56.2955 78.1787C51.6981 76.213 48.2569 72.5 47.0781 68.2156C46.4024 65.7606 47.2402 61.8418 46.6685 60.2506C50.1326 58.6478 52.9584 56.6947 56.3467 55.5804Z" fill="#497737"/>
<path d="M49.9989 62.6118C50.3689 63.2525 49.8315 65.8888 50.2747 67.5003C51.0373 70.2717 53.2652 72.6663 56.2343 73.906C56.3824 73.9682 56.4779 73.892 56.5588 73.8434C58.8879 72.4516 61.5258 70.7204 62.3855 68.0622C62.993 66.1845 62.0853 63.9082 62.6391 62.4128C62.6971 62.2564 62.62 62.0814 62.4671 62.0222C62.4581 62.0187 62.4489 62.0202 62.4398 62.0176C60.5546 61.1093 58.678 60.2119 56.4724 59.2279C56.4329 59.2104 56.3374 59.1927 56.2645 59.2168C54.2351 59.8742 52.2748 60.8167 50.0952 62.1826C49.9468 62.2754 49.9185 62.4725 49.9989 62.6118ZM61.8232 67.8717C61.0274 70.3319 58.4762 71.9931 56.3206 73.2834C53.5892 72.0982 51.5466 69.8861 50.8451 67.3362C50.4488 65.8968 50.9297 63.6149 50.6165 62.57C52.6316 61.325 54.4603 60.4489 56.3395 59.83C58.4199 60.7599 60.2118 61.6145 62.0001 62.4759C61.5624 64.1238 62.3507 66.2413 61.8232 67.8717Z" fill="#497737"/>
<path d="M59.3728 63.7648L55.707 67.8057C55.3644 68.1838 55.2804 68.1636 55.0058 67.8319L53.3542 65.8323C53.2487 65.7045 53.062 65.6883 52.9369 65.7964C52.8119 65.9043 52.7961 66.0954 52.9018 66.2232L54.5534 68.2229C55.0883 68.8718 55.5858 68.8304 56.1412 68.2179L59.807 64.177C59.9183 64.0543 59.9114 63.8626 59.7914 63.7488C59.6715 63.6352 59.4842 63.6421 59.3728 63.7648Z" fill="#497737"/>
<path d="M68.7103 54.0367C68.5664 53.9572 68.3865 54.011 68.3086 54.1584L66.5943 57.3874C66.5162 57.5346 66.5696 57.7184 66.7133 57.7983C66.8566 57.8776 67.0367 57.8243 67.115 57.6766L68.8293 54.4475C68.9074 54.3004 68.854 54.1166 68.7103 54.0367Z" fill="#497737"/>
<path d="M68.2403 58.6866L71.3627 57.215C71.5112 57.145 71.5762 56.9651 71.5077 56.813C71.4391 56.6611 71.263 56.5945 71.1147 56.6647L67.9924 58.1363C67.8439 58.2063 67.7789 58.3862 67.8473 58.5383C67.9162 58.6912 68.093 58.7562 68.2403 58.6866Z" fill="#497737"/>
<path d="M71.5731 59.8184L68.7134 59.6703C68.5437 59.6622 68.411 59.7904 68.4025 59.9575C68.3942 60.1245 68.5199 60.2669 68.6833 60.2754L71.543 60.4236C71.5482 60.4238 71.5532 60.424 71.5583 60.424C71.715 60.424 71.846 60.2981 71.8539 60.1364C71.8622 59.9691 71.7364 59.8269 71.5731 59.8184Z" fill="#497737"/>
</g>
<g opacity="0.4">
<path d="M156.826 69.0314C111.331 103.596 47.8273 102.899 4.64343 64.9271C2.35394 62.915 -1.01351 66.2526 1.29025 68.3179C45.5581 107.921 112.571 109.428 157.231 69.5506C157.49 69.31 157.125 68.7991 156.826 69.0314Z" fill="#497737"/>
<path d="M155.534 67.8183C153.193 67.5323 151.077 69.4312 148.979 70.3358C146.009 71.6072 142.913 72.2655 139.708 72.5156C137.486 72.6733 137.451 76.1644 139.686 75.9841C143.043 75.7315 146.308 75.0658 149.424 73.7742C151.824 72.7887 155.577 71.4596 156.132 68.6285C156.222 68.1856 155.95 67.8782 155.534 67.8183Z" fill="#497737"/>
<path d="M156.386 68.4466C153.965 70.2749 151.903 72.0259 150.069 74.5531C148.165 77.1751 146.782 80.038 145.549 83.032C144.552 85.4872 148.628 86.6401 149.57 84.1234C151.49 79.0048 154.27 73.8271 157.111 69.1655C157.38 68.7509 156.83 68.1182 156.386 68.4466Z" fill="#497737"/>
</g>
</svg>
